<svg
  xmlns="http://www.w3.org/2000/svg"
  viewBox="0 0 611.999 611.999"
  className="w-32 h-20"
  fill="none"
>
  <defs>
    <linearGradient
      id="flameGradient"
      x1="0%"
      y1="0%"
      x2="100%"
      y2="100%"
    >
      <stop offset="0%" stop-color="#6c63ff" />
      <stop offset="50%" stop-color="#a78bfa" />
      <stop offset="100%" stop-color="#38bdf8" />
    </linearGradient>
  </defs>

  <path
    fill="url(#flameGradient)"
    d="M216.02,611.195c5.978,3.178,12.284-3.704,8.624-9.4
    c-19.866-30.919-38.678-82.947-8.706-149.952
    c49.982-111.737,80.396-169.609,80.396-169.609
    s16.177,67.536,60.029,127.585
    c42.205,57.793,65.306,130.478,28.064,191.029
    c-3.495,5.683,2.668,12.388,8.607,9.349
    c46.1-23.582,97.806-70.885,103.64-165.017
    c2.151-28.764-1.075-69.034-17.206-119.851
    c-20.741-64.406-46.239-94.459-60.992-107.365
    c-4.413-3.861-11.276-0.439-10.914,5.413
    c4.299,69.494-21.845,87.129-36.726,47.386
    c-5.943-15.874-9.409-43.33-9.409-76.766
    c0-55.665-16.15-112.967-51.755-159.531
    c-9.259-12.109-20.093-23.424-32.523-33.073
    c-4.5-3.494-11.023,0.018-10.611,5.7
    c2.734,37.736,0.257,145.885-94.624,275.089
    c-86.029,119.851-52.693,211.896-40.864,236.826
    C153.666,566.767,185.212,594.814,216.02,611.195z"
  />
</svg>